<?xml version="1.0" encoding="UTF-8"?>
<svg version="1.1" xmlns="http://www.w3.org/2000/svg" width="256" height="256">
<path d="M0 0 C22.03852652 18.81159856 36.46579334 41.06373377 44.3515625 68.91015625 C44.69316406 70.08835937 45.03476563 71.2665625 45.38671875 72.48046875 C52.92056498 104.36791093 46.53869956 140.38566089 29.7109375 168.21484375 C19.22380228 184.89578124 5.20171214 199.62660904 -11.6484375 209.91015625 C-12.7209375 210.59335938 -13.7934375 211.2765625 -14.8984375 211.98046875 C-42.75922794 228.94201478 -78.25061189 233.92648545 -110.03027344 226.74707031 C-117.81941729 224.77736357 -125.2980262 222.14033195 -132.6484375 218.91015625 C-133.30263672 218.62688477 -133.95683594 218.34361328 -134.63085938 218.05175781 C-164.72593234 204.76588414 -188.43262339 179.18859339 -200.51953125 148.71386719 C-202.47890077 143.51521742 -204.1350825 138.25415274 -205.6484375 132.91015625 C-205.99003906 131.73195312 -206.33164063 130.55375 -206.68359375 129.33984375 C-214.21743998 97.45240157 -207.83557456 61.43465161 -191.0078125 33.60546875 C-172.71931393 4.51560818 -145.47270495 -14.79440926 -112.6484375 -24.08984375 C-111.47023438 -24.43144531 -110.29203125 -24.77304687 -109.078125 -25.125 C-71.91216204 -33.90596927 -29.43835184 -24.14652242 0 0 Z " fill="#FCB912" transform="translate(208.6484375,27.08984375)"/>
<path d="M0 0 C12.74407093 2.01688775 23.00333705 14.75957747 30.375 24.625 C31.47198751 26.14467995 32.56889625 27.66441732 33.66455078 29.18505859 C36.46843253 32.99567229 39.40151069 36.70852195 42.3125 40.4375 C42.91175293 41.20723145 43.51100586 41.97696289 44.12841797 42.77001953 C44.70092285 43.50462402 45.27342773 44.23922852 45.86328125 44.99609375 C46.4042041 45.6907373 46.94512695 46.38538086 47.50244141 47.10107422 C48.78251061 48.72422034 50.09691103 50.32019179 51.41796875 51.91015625 C53 54 53 54 53 56 C53.99 55.67 54.98 55.34 56 55 C57.36125 55.08701172 57.36125 55.08701172 58.75 55.17578125 C62.53102609 55.33483884 65.36725646 55.11023174 69 54 C72.89244221 50.41018734 75.70998329 46.36151217 78.64404297 41.97705078 C80.83728957 38.77919141 83.26580024 35.77618411 85.6875 32.75 C86.60783761 31.58417468 87.5271346 30.41752701 88.4453125 29.25 C88.88004883 28.69828125 89.31478516 28.1465625 89.76269531 27.578125 C90.88890893 26.14169153 92.00369049 24.69631346 93.1171875 23.25 C99.94738368 14.47223785 107.76396052 4.89896053 118 0 C119.32 0 120.64 0 122 0 C122.62817704 1.68631992 123.25236893 3.37412451 123.875 5.0625 C124.39707031 6.47208984 124.39707031 6.47208984 124.9296875 7.91015625 C125.28289062 8.92980469 125.63609375 9.94945312 126 11 C126.36867187 12.05703125 126.73734375 13.1140625 127.1171875 14.203125 C128.25350762 19.09030711 128.30036886 23.68775057 128.25 28.6875 C128.24178223 29.66920166 128.23356445 30.65090332 128.22509766 31.66235352 C127.95563406 49.14996132 122.9866241 68.78668077 110.5 81.8125 C109.9740625 82.29332031 109.448125 82.77414063 108.90625 83.26953125 C107.6999682 85.11466162 107.6999682 85.11466162 108.6640625 87.84765625 C109.94230185 90.86385262 111.3375201 93.73326319 112.875 96.625 C115.90582973 102.60554235 118.14345026 108.56396091 120 115 C120.30035156 116.00546875 120.60070312 117.0109375 120.91015625 118.046875 C124.82018763 132.66857373 124.433203 147.19265056 117.5625 160.859375 C108.12333514 176.9241075 94.06155381 186.48621136 76.484375 191.75390625 C61.31029343 195.54742664 45.1603156 191.9162935 31.8671875 184.17578125 C19.20726974 176.10072093 8.33252284 164.82858648 3.625 150.22265625 C-0.14293165 130.79425868 5.35088529 109.91214823 14.74609375 92.82421875 C16.17557223 90.18345202 16.17557223 90.18345202 15.87890625 87.83203125 C14.84385204 85.67451825 13.63771713 84.3722254 11.9375 82.6875 C-3.16530893 66.03090414 -7.14886238 43.27826449 -6.21289062 21.56054688 C-5.59383703 14.11486556 -3.5700917 6.57733111 0 0 Z " fill="#9E6F45" transform="translate(67,35)"/>
<path d="M0 0 C4.09503017 1.62988966 6.86912169 4.56646857 9.93017578 7.6237793 C10.80405441 8.48517265 10.80405441 8.48517265 11.69558716 9.3639679 C13.6176369 11.26194457 15.53196258 13.16747447 17.4453125 15.07421875 C18.7799436 16.39988174 20.11465133 17.72546759 21.44943237 19.05097961 C24.24557634 21.83063851 27.03729989 24.61465782 29.82666016 27.40112305 C33.39709588 30.96617457 36.98339904 34.51479269 40.57390022 38.05961895 C43.33619631 40.79213568 46.08713475 43.53587388 48.83507919 46.28281593 C50.15226169 47.59579821 51.47355739 48.90466777 52.79904556 50.20926476 C54.65431332 52.03760122 56.4930355 53.88117259 58.32861328 55.72924805 C59.14996765 56.52835098 59.14996765 56.52835098 59.98791504 57.34359741 C69.79203836 67.33847506 67.38638618 84.65427781 67.30036926 97.70603943 C66.8689505 132.32537862 51.31777465 162.28277146 27.09985352 186.32226562 C21.17695524 192.03316015 15.03896803 196.70415922 8 201 C6.39125 202.02480469 6.39125 202.02480469 4.75 203.0703125 C-7.73538209 210.67136687 -21.20593176 215.48719998 -35.5 218.4375 C-36.28777832 218.6015332 -37.07555664 218.76556641 -37.88720703 218.93457031 C-40.25475089 219.37783402 -42.61002286 219.70054177 -45 220 C-45.83924515 220.11670547 -46.6784903 220.23341095 -47.54316711 220.35365295 C-51.71312463 220.6742282 -54.79432641 220.73020146 -58.43966675 218.52244568 C-60.90984327 216.36049571 -63.14901611 214.08925069 -65.38671875 211.6875 C-66.62854668 210.42232544 -66.62854668 210.42232544 -67.89546204 209.1315918 C-70.51987029 206.44586915 -73.10334454 203.72441825 -75.6875 201 C-77.46552502 199.16677089 -79.24609969 197.33601099 -81.02929688 195.5078125 C-85.38279789 191.03338162 -89.70335892 186.52902271 -94 182 C-93.505 181.01 -93.505 181.01 -93 180 C-92.14341797 180.58007812 -92.14341797 180.58007812 -91.26953125 181.171875 C-82.01397035 187.11662318 -72.0098067 190.48455961 -61 191 C-60.33226562 191.06316406 -59.66453125 191.12632812 -58.9765625 191.19140625 C-45.38268513 191.97469658 -30.38980631 185.90247134 -20.25097656 177.10986328 C-9.22466085 167.07873971 -0.77498039 155.73904723 0.23828125 140.390625 C0.72692584 122.43729918 -3.7673054 103.30607376 -13.87109375 88.203125 C-15 86 -15 86 -14.390625 83.96484375 C-12.86657252 81.81147746 -11.3312776 79.67443157 -9.75 77.5625 C-5.62133696 71.73936484 -2.77439245 65.555348 0 59 C0.3196875 58.27941406 0.639375 57.55882812 0.96875 56.81640625 C8.38139977 38.98898356 6.5643841 17.67694862 0 0 Z " fill="#FE9100" transform="translate(189,36)"/>
<path d="M0 0 C12.74407093 2.01688775 23.00333705 14.75957747 30.375 24.625 C31.47198751 26.14467995 32.56889625 27.66441732 33.66455078 29.18505859 C36.46843253 32.99567229 39.40151069 36.70852195 42.3125 40.4375 C42.91175293 41.20723145 43.51100586 41.97696289 44.12841797 42.77001953 C44.70092285 43.50462402 45.27342773 44.23922852 45.86328125 44.99609375 C46.4042041 45.6907373 46.94512695 46.38538086 47.50244141 47.10107422 C48.78251061 48.72422034 50.09691103 50.32019179 51.41796875 51.91015625 C53 54 53 54 53 56 C55.64 55.67 58.28 55.34 61 55 C61 80.41 61 105.82 61 132 C57.04 132.33 53.08 132.66 49 133 C44.80866711 135.46940214 44.80866711 135.46940214 44.375 138.75 C45.27344083 143.42189232 47.49650168 145.86812276 51 149 C51.83144531 149.40621582 52.66289063 149.81243164 53.51953125 150.23095703 C56.72833883 151.84182072 58.69849405 153.21947248 61 156 C62.69765901 161.91145273 61.93530941 168.37358574 61.625 174.4375 C61.57479293 176.1398436 61.52917357 177.84232906 61.48828125 179.54492188 C61.37852369 183.70013634 61.20628946 187.84850389 61 192 C45.91567521 192.47434984 33.2161602 186.52672906 21.8125 176.8125 C11.16923368 166.69968586 3.0891331 155.18347389 2.46362305 140.17895508 C2.2858186 123.64646495 6.78266837 107.3080327 14.74609375 92.82421875 C16.17557223 90.18345202 16.17557223 90.18345202 15.87890625 87.83203125 C14.84385204 85.67451825 13.63771713 84.3722254 11.9375 82.6875 C-3.16530893 66.03090414 -7.14886238 43.27826449 -6.21289062 21.56054688 C-5.59383703 14.11486556 -3.5700917 6.57733111 0 0 Z " fill="#C48957" transform="translate(67,35)"/>
<path d="M0 0 C8.99510657 1.3971457 16.96087767 8.36318669 22.69528198 15.17892456 C26.94023656 21.10386958 29.41101954 28.26260128 32.07250977 34.99682617 C33.19666569 37.83564603 34.36159563 40.65508551 35.53320312 43.47460938 C36.26804647 45.28026643 37.00055534 47.0868757 37.73046875 48.89453125 C38.24893623 50.15400322 38.24893623 50.15400322 38.77787781 51.43891907 C41.6723092 58.84235781 41.6723092 58.84235781 40 63 C37.99609375 65.10546875 37.99609375 65.10546875 35.4375 67.1875 C28.4280663 73.20418129 22.92100279 80.20841224 18 88 C8.45970467 80.79610352 3.51513793 70.86298867 -1 60 C-1.29777344 59.32453125 -1.59554687 58.6490625 -1.90234375 57.953125 C-8.74253949 41.4822059 -8.04381731 20.56535329 -2 4 C-1.36420362 2.65167319 -0.71113587 1.31015572 0 0 Z " fill="#9E6F45" transform="translate(67,35)"/>
<path d="M0 0 C0.62817704 1.68631992 1.25236893 3.37412451 1.875 5.0625 C2.22304687 6.00222656 2.57109375 6.94195312 2.9296875 7.91015625 C3.28289062 8.92980469 3.63609375 9.94945312 4 11 C4.36867187 12.05703125 4.73734375 13.1140625 5.1171875 14.203125 C6.25350762 19.09030711 6.30036886 23.68775057 6.25 28.6875 C6.23767334 30.16005249 6.23767334 30.16005249 6.22509766 31.66235352 C5.9237662 51.21811674 -0.44694517 70.47886982 -14 85 C-17.81448747 83.72850418 -18.4536898 82.23157711 -20.6875 78.9375 C-26.38421846 70.90793888 -32.35556554 64.78202757 -41 60 C-37.50526676 50.33976179 -33.74532576 40.80304844 -29.8125 31.3125 C-29.38469238 30.27351563 -28.95688477 29.23453125 -28.51611328 28.1640625 C-28.10474121 27.17792969 -27.69336914 26.19179688 -27.26953125 25.17578125 C-26.90448486 24.29833252 -26.53943848 23.42088379 -26.16333008 22.5168457 C-21.793199 13.06213819 -11.21178857 0 0 0 Z " fill="#775336" transform="translate(189,35)"/>
<path d="M0 0 C6.00907076 -0.78379184 9.66271577 0.88716641 14.6953125 4.18359375 C21.2830147 9.37559633 22.6707245 15.46585816 23.6640625 23.5625 C23.77492187 24.696875 23.88578125 25.83125 24 27 C24.11085937 28.11375 24.22171875 29.2275 24.3359375 30.375 C24.61583825 33.58251134 24.82368261 36.78528298 25 40 C25.09861328 41.3303125 25.09861328 41.3303125 25.19921875 42.6875 C25.52032657 49.77401746 24.11664915 56.3356229 19.421875 61.85546875 C13.55573064 67.20634367 7.91905219 69.16969398 0 69 C0.02731201 68.04222656 0.05462402 67.08445312 0.08276367 66.09765625 C0.17023221 62.51130382 0.18417506 58.92763995 0.17700195 55.34033203 C0.18393737 53.79421872 0.21027405 52.24805694 0.25708008 50.70263672 C0.71366403 41.31251999 0.71366403 41.31251999 -3.41674805 33.26220703 C-6.19449494 31.26274278 -8.99877193 29.63479302 -12 28 C-15.10526603 25.3242737 -16.80496496 22.97517521 -17.625 18.875 C-17 16 -17 16 -15.25 13.625 C-10.17541789 11.08770895 -5.62891205 11.75257529 0 12 C0 8.04 0 4.08 0 0 Z " fill="#C28857" transform="translate(128,155)"/>
<path d="M0 0 C0 3.96 0 7.92 0 12 C-2.84625 12.1546875 -2.84625 12.1546875 -5.75 12.3125 C-10.11616905 12.5497918 -12.82363782 12.86127244 -16 16 C-16.6962826 19.06364344 -16.61421751 20.95631008 -15 23.69921875 C-12.76346958 26.52665067 -10.72306031 28.63160358 -7.48046875 30.28369141 C-4.35292411 31.90184087 -2.30423483 33.31697605 0 36 C1.2613936 41.68842189 0.9489751 47.15301628 0.625 52.9375 C0.57478496 54.49529999 0.52916696 56.05325536 0.48828125 57.61132812 C0.37859463 61.4114146 0.20642574 65.20398948 0 69 C-7.717613 69.10041087 -12.03712915 67.63366298 -17.8125 62.5 C-25.30115119 53.9415415 -24.18124143 45.82757621 -24 35 C-23.99274902 34.2255957 -23.98549805 33.45119141 -23.97802734 32.65332031 C-23.85132006 22.66706847 -23.31384564 13.90840179 -16.32421875 6.13671875 C-11.29562794 1.46492374 -6.9082325 0 0 0 Z " fill="#E1A66E" transform="translate(128,155)"/>
<path d="M0 0 C1.63291992 0.00193359 1.63291992 0.00193359 3.29882812 0.00390625 C12.39850714 0.10470269 12.39850714 0.10470269 15.9375 2.375 C17.44639469 5.39278937 17.43776276 6.99822637 16.9375 10.375 C13.31128807 16.08145263 7.32540842 21.95978374 0.9375 24.375 C-5.9034712 22.60300589 -13.50642462 16.40486695 -17.0625 10.375 C-17.625 7.3125 -17.625 7.3125 -17.0625 4.375 C-12.53042072 -1.12114 -6.52781705 -0.14738981 0 0 Z " fill="#24282B" transform="translate(128.0625,166.625)"/>
<path d="M0 0 C0 7.92 0 15.84 0 24 C-13.17073171 16.09756098 -13.17073171 16.09756098 -17 10 C-17.75 6.75 -17.75 6.75 -17 4 C-12.46808293 -2.15045888 -8.237756 0 0 0 Z " fill="#434A52" transform="translate(128,167)"/>
<path d="M0 0 C0.66 0 1.32 0 2 0 C3.32226562 1.33032227 3.32226562 1.33032227 4.90625 3.25390625 C9.37996849 8.50682054 14.13256891 13.4607239 18.97021484 18.37524414 C19.99635485 19.42316464 21.01617071 20.47731274 22.02978516 21.53735352 C23.51588134 23.09047908 25.02086783 24.62286967 26.53125 26.15234375 C27.41361328 27.05976318 28.29597656 27.96718262 29.20507812 28.90209961 C32.52256945 31.39224662 34.90809505 31.74473042 39 32 C39 32.33 39 32.66 39 33 C34.09004096 34.4526506 30.05179834 35.02056532 25 34 C20.44338036 30.45626261 17.56575616 25.09584998 14.51611328 20.28369141 C12.0353182 16.54691892 9.17328477 13.13653953 6.3125 9.6875 C1.14106273 3.42318819 1.14106273 3.42318819 0 0 Z " fill="#FA9105" transform="translate(95,57)"/>
<path d="M0 0 C2.3125 1.5625 2.3125 1.5625 4 4 C4.42519574 7.46230815 4.63902633 9.8347167 2.9375 12.9375 C-0.11976176 14.6140629 -2.5906288 14.36528977 -6 14 C-7.9375 13 -7.9375 13 -9 11 C-9.45971393 8.24171641 -9.51618579 5.7529909 -9 3 C-6.40390408 -0.07685443 -3.9263577 -0.6871126 0 0 Z " fill="#27292C" transform="translate(164,141)"/>
<path d="M0 0 C3.40524375 0.68104875 4.52547983 1.6479153 6.5 4.5 C6.92519574 7.96230815 7.13902633 10.3347167 5.4375 13.4375 C2.38023824 15.1140629 -0.0906288 14.86528977 -3.5 14.5 C-5.4375 13.4375 -5.4375 13.4375 -6.5 11.5 C-7.004958 7.5324729 -7.11854451 5.39345318 -4.8125 2.0625 C-2.5 0.5 -2.5 0.5 0 0 Z " fill="#454B52" transform="translate(94.5,140.5)"/>
</svg>
